<svg width="1612" height="1117" viewBox="0 0 1612 1117" fill="none" xmlns="http://www.w3.org/2000/svg">
<mask id="mask0_14_81" style="mask-type:alpha" maskUnits="userSpaceOnUse" x="0" y="-347" width="1612" height="2064">
<g opacity="0.48">
<path d="M0.570775 822.489L0.570801 -346.229L90.1062 -294.536C153.949 -257.676 175.749 -201.038 175.749 -70.6814L175.749 371.633C175.749 514.576 153.949 550.537 90.1062 513.677L63.6348 498.394L63.6348 858.899L0.570775 822.489ZM63.6348 434.564L90.1062 449.847C107.235 459.737 113.463 430.968 113.463 335.673L113.463 -103.945C113.463 -188.452 107.235 -220.817 90.1062 -230.706L63.6349 -245.989L63.6348 434.564Z" fill="#101010"/>
<path d="M206.113 941.158L206.113 -227.559L341.584 -149.345L341.584 -81.919L269.177 -123.723L269.177 456.141L318.227 484.459L318.227 551.886L269.177 523.567L269.177 910.142L345.477 954.194L345.477 1021.62L206.113 941.158Z" fill="#101010"/>
<path d="M371.948 1036.9L371.948 -131.814L507.419 -53.6001L507.419 13.8259L435.012 -27.9782L435.012 551.886L484.062 580.204L484.062 647.63L435.012 619.312L435.012 1005.89L511.312 1049.94L511.312 1117.36L371.948 1036.9Z" fill="#101010"/>
<path d="M537.783 1132.65L537.783 -36.0693L627.318 15.6239C691.161 52.4835 712.961 109.121 712.961 239.478L712.961 595.488C712.961 689.884 705.954 745.173 688.047 768.098C704.397 802.71 710.625 848.56 712.961 917.335C712.961 917.335 715.297 1120.96 721.525 1238.73L659.24 1202.77C649.897 1084.1 650.675 884.071 650.675 884.071C647.561 806.756 645.226 779.336 627.318 768.997L600.847 753.714L600.847 1169.06L537.783 1132.65ZM627.318 705.167C644.447 715.056 650.675 678.197 650.675 559.527L650.676 206.215C650.676 121.708 644.447 89.3431 627.318 79.4539L600.847 64.1707L600.847 689.884L627.318 705.167Z" fill="#101010"/>
<path d="M755.004 1258.06L755.004 89.343L838.311 137.44C902.932 174.749 924.732 231.387 924.732 361.744L924.732 591.892C924.732 731.239 915.389 806.756 892.032 833.726C919.282 870.136 930.182 921.38 930.182 1004.99L930.182 1183.89C930.182 1314.25 908.382 1346.61 845.318 1310.2L755.004 1258.06ZM838.311 789.225C856.218 799.564 862.446 744.724 862.446 574.81L862.446 328.481C862.446 243.973 856.218 211.609 838.311 201.27L818.068 189.583L818.068 777.538L838.311 789.225ZM818.068 1230.64L845.318 1246.37C862.446 1256.26 867.896 1230.64 867.896 1147.93L867.896 971.725C867.896 896.208 862.446 866.99 845.318 857.101L818.068 841.368L818.068 1230.64Z" fill="#101010"/>
<path d="M1076.55 274.989L1138.84 310.95C1138.84 310.95 1139.62 989.256 1139.62 1391.11C1139.62 1463.93 1117.82 1476.52 1055.53 1440.56C993.246 1404.6 971.446 1366.84 971.446 1294.02L971.446 214.306L1033.73 250.266L1034.51 1343.92C1034.51 1359.2 1039.96 1367.74 1055.53 1376.73C1071.1 1385.72 1076.55 1383.47 1076.55 1368.19L1076.55 274.989Z" fill="#101010"/>
<path d="M1180.88 1503.94L1180.88 335.223L1243.94 371.633L1243.94 1540.35L1180.88 1503.94Z" fill="#101010"/>
<path d="M1285.99 1564.62L1285.99 395.907L1349.05 432.317L1349.05 1533.61L1413.67 1570.92L1413.67 1638.34L1285.99 1564.62Z" fill="#101010"/>
<path d="M1436.25 1651.38L1436.25 482.661L1522.67 532.557C1588.85 570.765 1611.43 627.852 1611.43 758.209L1611.43 1577.21C1611.43 1707.57 1588.85 1739.48 1522.67 1701.27L1436.25 1651.38ZM1499.32 1623.96L1522.67 1637.44C1542.14 1648.68 1549.14 1623.96 1549.14 1541.25L1549.14 724.946C1549.14 640.438 1542.14 607.624 1522.67 596.387L1499.32 582.901L1499.32 1623.96Z" fill="#101010"/>
</g>
</mask>
<g mask="url(#mask0_14_81)">
<g opacity="0.28" filter="url(#filter0_f_14_81)">
<circle cx="609.052" cy="609.052" r="609.052" transform="matrix(0.866025 0.5 -2.20305e-08 1 289 419)" fill="#828282"/>
</g>
</g>
<defs>
<filter id="filter0_f_14_81" x="-785" y="-422.512" width="3202.91" height="3510.18" filterUnits="userSpaceOnUse" color-interpolation-filters="sRGB">
<feFlood flood-opacity="0" result="BackgroundImageFix"/>
<feBlend mode="normal" in="SourceGraphic" in2="BackgroundImageFix" result="shape"/>
<feGaussianBlur stdDeviation="537" result="effect1_foregroundBlur_14_81"/>
</filter>
</defs>
</svg>
