<svg width="100" height="100" viewBox="0 0 100 100" fill="none" xmlns="http://www.w3.org/2000/svg">
<g clip-path="url(#clip0_1774_517)">
<rect width="100" height="100" fill="#0D0D0E"/>
<path d="M34.5323 81.5547C34.5323 82.3661 34.2982 82.8965 33.8302 83.1462C33.3933 83.3958 32.7224 83.5206 31.8174 83.5206C30.9125 83.5206 30.2416 83.3958 29.8047 83.1462C29.3678 82.8965 29.1494 82.3661 29.1494 81.5547L29.1495 22.38C29.1495 21.5686 29.3679 21.0382 29.8048 20.7885C30.2417 20.5389 30.9126 20.4141 31.8175 20.4141C32.7225 20.4141 33.3934 20.5389 33.8303 20.7885C34.2983 21.0382 34.5324 21.5686 34.5324 22.38L34.5323 81.5547Z" fill="white"/>
<path d="M47.6581 30.2904C47.6581 29.2607 47.5177 28.4181 47.2368 27.7628C46.956 27.1075 46.5659 26.577 46.0667 26.1714C45.5986 25.7657 45.0369 25.4381 44.3816 25.1884C43.7575 24.9388 43.0866 24.6891 42.3689 24.4395C41.932 24.2835 41.5575 24.0963 41.2455 23.8778C40.9646 23.6594 40.8242 23.2069 40.8242 22.5204C40.8242 21.7403 41.0427 21.1942 41.4795 20.8821C41.9164 20.5701 42.6185 20.4141 43.5859 20.4141C44.8965 20.4141 46.1291 20.6637 47.2837 21.163C48.4382 21.6623 49.4368 22.3644 50.2793 23.2693C51.1219 24.1431 51.7928 25.1884 52.2921 26.4054C52.7913 27.5912 53.041 28.8862 53.041 30.2904V62.5876C53.041 63.9918 52.7913 65.2868 52.2921 66.4726C51.7928 67.6896 51.1219 68.735 50.2793 69.6087C49.4368 70.5137 48.4382 71.2158 47.2837 71.7151C46.1291 72.2144 44.8965 72.464 43.5859 72.464C42.6185 72.464 41.9164 72.308 41.4795 71.9959C41.0427 71.6839 40.8242 71.1378 40.8242 70.3577C40.8242 69.6711 40.9646 69.2187 41.2455 69.0002C41.5575 68.7818 41.932 68.5946 42.3689 68.4386C43.0866 68.2201 43.7575 67.9705 44.3816 67.6896C45.0369 67.44 45.5986 67.1123 46.0667 66.7067C46.5659 66.301 46.956 65.7705 47.2368 65.1152C47.5177 64.4599 47.6581 63.6174 47.6581 62.5876V30.2904Z" fill="white"/>
<path d="M60.6457 72.464C59.6472 72.464 58.9295 72.3236 58.4926 72.0427C58.0557 71.7619 57.8373 71.2158 57.8373 70.4045C57.8373 69.9052 57.9153 69.4995 58.0713 69.1875C58.2273 68.9066 58.399 68.6882 58.5862 68.5322C58.8046 68.4073 59.0231 68.3137 59.2415 68.2513C59.4911 68.2201 59.7096 68.2045 59.8968 68.2045C60.7081 68.1421 61.2854 67.83 61.6287 67.2684C61.9719 66.7379 62.1436 66.0358 62.1436 65.162V51.4942C62.1436 50.0276 62.362 48.8418 62.7989 47.9369C63.2357 47.0319 63.9066 46.5326 64.8116 46.439C63.9066 46.3454 63.2357 45.8617 62.7989 44.988C62.362 44.083 62.1436 42.8817 62.1436 41.3838V27.716C62.1436 26.8423 61.9719 26.1402 61.6287 25.6097C61.2854 25.048 60.7081 24.736 59.8968 24.6735C59.7096 24.6735 59.4911 24.6579 59.2415 24.6267C59.0231 24.5643 58.8046 24.4707 58.5862 24.3459C58.399 24.1899 58.2273 23.9714 58.0713 23.6906C57.9153 23.4097 57.8373 23.0041 57.8373 22.4736C57.8373 21.6623 58.0557 21.1162 58.4926 20.8353C58.9295 20.5545 59.6472 20.4141 60.6457 20.4141C63.0797 20.4141 64.8272 21.0694 65.8882 22.38C66.9803 23.6906 67.5264 25.4693 67.5264 27.716V41.2902C67.5264 41.8519 67.5732 42.3044 67.6668 42.6476C67.7917 42.9909 67.9477 43.2717 68.1349 43.4902C68.3534 43.6774 68.603 43.8178 68.8838 43.9114C69.1647 44.005 69.4767 44.0987 69.82 44.1923C70.1945 44.2859 70.4597 44.4731 70.6157 44.754C70.7717 45.0036 70.8498 45.5653 70.8498 46.439C70.8498 47.3128 70.7717 47.8901 70.6157 48.1709C70.4597 48.4205 70.1945 48.5922 69.82 48.6858C69.4767 48.7794 69.1647 48.873 68.8838 48.9666C68.603 49.0602 68.3534 49.2163 68.1349 49.4347C67.9477 49.6219 67.7917 49.8872 67.6668 50.2304C67.5732 50.5737 67.5264 51.0262 67.5264 51.5879V65.162C67.5264 67.4088 66.9803 69.1875 65.8882 70.4981C64.8272 71.8087 63.0797 72.464 60.6457 72.464Z" fill="white"/>
</g>
<defs>
<clipPath id="clip0_1774_517">
<rect width="100" height="100" fill="white"/>
</clipPath>
</defs>
</svg>
