<svg xmlns="http://www.w3.org/2000/svg" width="101" height="100" viewBox="0 0 101 100" fill="none">
  <g clip-path="url(#clip0_14_73)">
    <rect x="0.462646" width="100" height="100" rx="14" fill="black"/>
    <path d="M38.1443 73.0724C38.1443 73.697 37.9641 74.1054 37.6037 74.2976C37.2674 74.4898 36.7508 74.5859 36.0541 74.5859C35.3574 74.5859 34.8409 74.4898 34.5045 74.2976C34.1682 74.1054 34 73.697 34 73.0724L34.0001 27.5136C34.0001 26.8889 34.1682 26.4805 34.5046 26.2883C34.8409 26.0961 35.3575 26 36.0542 26C36.7509 26 37.2674 26.0961 37.6038 26.2883C37.9642 26.4805 38.1444 26.8889 38.1444 27.5136L38.1443 73.0724Z" fill="url(#paint0_linear_14_73)"/>
    <path d="M48.25 33.6039C48.25 32.811 48.1419 32.1624 47.9256 31.6578C47.7094 31.1533 47.4091 30.7449 47.0247 30.4326C46.6643 30.1203 46.2319 29.868 45.7274 29.6758C45.2469 29.4836 44.7303 29.2914 44.1778 29.0992C43.8414 28.9791 43.5531 28.8349 43.3129 28.6668C43.0967 28.4986 42.9885 28.1502 42.9885 27.6217C42.9885 27.0211 43.1567 26.6006 43.4931 26.3604C43.8294 26.1201 44.37 26 45.1147 26C46.1238 26 47.0728 26.1922 47.9617 26.5766C48.8506 26.961 49.6194 27.5016 50.2681 28.1983C50.9167 28.871 51.4333 29.6758 51.8177 30.6128C52.2021 31.5257 52.3943 32.5227 52.3943 33.6039V58.4695C52.3943 59.5507 52.2021 60.5477 51.8177 61.4606C51.4333 62.3976 50.9167 63.2024 50.2681 63.8751C49.6194 64.5718 48.8506 65.1124 47.9617 65.4968C47.0728 65.8812 46.1238 66.0734 45.1147 66.0734C44.37 66.0734 43.8294 65.9533 43.4931 65.713C43.1567 65.4728 42.9885 65.0523 42.9885 64.4517C42.9885 63.9232 43.0967 63.5748 43.3129 63.4066C43.5531 63.2385 43.8414 63.0943 44.1778 62.9742C44.7303 62.806 45.2469 62.6138 45.7274 62.3976C46.2319 62.2054 46.6643 61.9531 47.0247 61.6408C47.4091 61.3285 47.7094 60.9201 47.9256 60.4156C48.1419 59.911 48.25 59.2624 48.25 58.4695V33.6039Z" fill="url(#paint1_linear_14_73)"/>
    <path d="M58.2492 66.0734C57.4804 66.0734 56.9278 65.9653 56.5915 65.7491C56.2551 65.5328 56.0869 65.1124 56.0869 64.4878C56.0869 64.1034 56.147 63.791 56.2671 63.5508C56.3873 63.3346 56.5194 63.1664 56.6635 63.0463C56.8317 62.9502 56.9999 62.8781 57.1681 62.83C57.3603 62.806 57.5284 62.794 57.6726 62.794C58.2972 62.746 58.7417 62.5057 59.006 62.0733C59.2702 61.6648 59.4024 61.1243 59.4024 60.4516V49.9287C59.4024 48.7995 59.5705 47.8866 59.9069 47.1899C60.2432 46.4932 60.7598 46.1088 61.4565 46.0367C60.7598 45.9646 60.2432 45.5922 59.9069 44.9195C59.5705 44.2228 59.4024 43.2979 59.4024 42.1447V31.6218C59.4024 30.9491 59.2702 30.4086 59.006 30.0001C58.7417 29.5677 58.2972 29.3274 57.6726 29.2794C57.5284 29.2794 57.3603 29.2674 57.1681 29.2434C56.9999 29.1953 56.8317 29.1232 56.6635 29.0271C56.5194 28.907 56.3873 28.7388 56.2671 28.5226C56.147 28.3064 56.0869 27.9941 56.0869 27.5856C56.0869 26.961 56.2551 26.5406 56.5915 26.3243C56.9278 26.1081 57.4804 26 58.2492 26C60.1231 26 61.4685 26.5045 62.2853 27.5136C63.1262 28.5226 63.5466 29.892 63.5466 31.6218V42.0726C63.5466 42.505 63.5827 42.8534 63.6548 43.1177C63.7509 43.382 63.871 43.5982 64.0151 43.7664C64.1833 43.9105 64.3755 44.0186 64.5917 44.0907C64.8079 44.1628 65.0482 44.2348 65.3125 44.3069C65.6008 44.379 65.805 44.5231 65.9251 44.7394C66.0452 44.9316 66.1053 45.364 66.1053 46.0367C66.1053 46.7094 66.0452 47.1539 65.9251 47.3701C65.805 47.5623 65.6008 47.6944 65.3125 47.7665C65.0482 47.8386 64.8079 47.9106 64.5917 47.9827C64.3755 48.0548 64.1833 48.1749 64.0151 48.3431C63.871 48.4872 63.7509 48.6914 63.6548 48.9557C63.5827 49.22 63.5466 49.5683 63.5466 50.0008V60.4516C63.5466 62.1814 63.1262 63.5508 62.2853 64.5598C61.4685 65.5689 60.1231 66.0734 58.2492 66.0734Z" fill="url(#paint2_linear_14_73)"/>
  </g>
  <rect x="1.96265" y="1.5" width="97" height="97" rx="12.5" stroke="url(#paint3_linear_14_73)" stroke-width="3"/>
  <defs>
    <linearGradient id="paint0_linear_14_73" x1="50.0526" y1="26" x2="50.0526" y2="74.5859" gradientUnits="userSpaceOnUse">
      <stop stop-color="#999999"/>
      <stop offset="1" stop-color="white"/>
    </linearGradient>
    <linearGradient id="paint1_linear_14_73" x1="50.0526" y1="26" x2="50.0526" y2="74.5859" gradientUnits="userSpaceOnUse">
      <stop stop-color="#999999"/>
      <stop offset="1" stop-color="white"/>
    </linearGradient>
    <linearGradient id="paint2_linear_14_73" x1="50.0526" y1="26" x2="50.0526" y2="74.5859" gradientUnits="userSpaceOnUse">
      <stop stop-color="#999999"/>
      <stop offset="1" stop-color="white"/>
    </linearGradient>
    <linearGradient id="paint3_linear_14_73" x1="75.5" y1="-58" x2="2.60524e-07" y2="137" gradientUnits="userSpaceOnUse">
      <stop/>
      <stop offset="1" stop-color="#969696"/>
    </linearGradient>
    <clipPath id="clip0_14_73">
      <rect x="0.462646" width="100" height="100" rx="14" fill="white"/>
    </clipPath>
  </defs>
</svg>
