<?xml version="1.0" encoding="UTF-8" standalone="yes"?>
<svg width="378" height="378" viewBox="0 0 378 378" fill="none" version="1.2" baseProfile="tiny-ps" xmlns="http://www.w3.org/2000/svg">
  <title>bimi-svg-tiny-12-ps</title>
  <rect width="378" height="378" fill="white"/>
  <path d="M110.133 84C109.507 84 109 84.5074 109 85.1333V119.196C109 119.822 109.507 120.329 110.133 120.329H220.819C224.955 120.329 227.027 125.335 224.102 128.262L186.918 165.484C183.146 169.261 178.029 171.383 172.694 171.383H110.133C109.507 171.383 109 171.89 109 172.516V292.164C109 293.173 110.221 293.679 110.935 292.965L232.391 171.383H232.379C232.367 171.383 232.362 171.369 232.37 171.361C232.378 171.353 232.391 171.359 232.391 171.37V171.383L268.351 135.385C268.563 135.173 268.683 134.885 268.683 134.585V85.1333C268.683 84.5074 268.175 84 267.549 84H110.133Z" fill="#1D1D1F"/>
</svg>